PathFileType	4	(X/Y/Z)	11_1_30_p1_0-324.trc
DataRate	CameraRate	NumFrames	NumMarkers	Units	OrigDataRate	OrigDataStartFrame	OrigNumFrames
55.0	55.0	5	27	m	55.0	0	325
Frame#	Time	RHip			RKnee			RAnkle			RBigToe			RSmallToe			RHeel			LHip			LKnee			LAnkle			LBigToe			LSmallToe			LHeel			Neck			Head			Nose			RShoulder			RElbow			RWrist			RThumb			RIndex			RPinky			LShoulder			LElbow			LWrist			LThumb			LIndex			LPinky			
		X1	Y1	Z1	X2	Y2	Z2	X3	Y3	Z3	X4	Y4	Z4	X5	Y5	Z5	X6	Y6	Z6	X7	Y7	Z7	X8	Y8	Z8	X9	Y9	Z9	X10	Y10	Z10	X11	Y11	Z11	X12	Y12	Z12	X13	Y13	Z13	X14	Y14	Z14	X15	Y15	Z15	X16	Y16	Z16	X17	Y17	Z17	X18	Y18	Z18	X19	Y19	Z19	X20	Y20	Z20	X21	Y21	Z21	X22	Y22	Z22	X23	Y23	Z23	X24	Y24	Z24	X25	Y25	Z25	X26	Y26	Z26	X27	Y27	Z27	
0	0.0	0.3483643209923389	0.648595231071631	0.5725187946895683	0.36391582417904483	0.6946773025165902	1.03890666257397	0.3662933495429096	0.7885969920483669	1.4600731069792914	0.3510501122617477	0.542256693514067	1.4583072392594782	0.40515471158015165	0.5800000248822942	1.4585005737128236	0.33933086553617686	0.8451477041809247	1.5266109412903726	0.1615169652086743	0.6371309866060606	0.5953096917053984	0.1679774648091865	0.6866920461011163	1.0171292248089276	0.17564946332029735	0.7599851058969512	1.4502280182465737	0.18051457838912113	0.5885900431109032	1.4721106327007767	0.13370839593292755	0.6142497188857591	1.4665092481054398	0.18939153649841736	0.8154961179494176	1.4914639298288062	0.23057414480585198	0.6012093669791235	0.08543445001475419	0.22756681974369866	0.5606596129811532	-0.1417165706184658	0.22951096088836018	0.4591457807354647	-0.01651022388902385	0.38622402671284994	0.5638284011169162	0.16099979542510884	0.40759232165806414	0.5523004096008097	0.407719886548295	0.31386267496431225	0.5006292764849899	0.6060842184894178	0.2507291810287227	0.4313168780810106	0.6756671686975616	0.25095799314594924	0.4329363868371771	0.6813124703265551	0.25966158167814923	0.43277708457250796	0.6859286839537503	0.10135484379386658	0.5934299699150317	0.16610040861642836	0.0951448511956171	0.5401604854338939	0.41067834366648637	0.18481509749871577	0.46721866553940045	0.6007445383065608	0.2574298223601728	0.4169296607134999	0.6541501775082583	0.25435073092880134	0.40667866437844513	0.6748262203728588	0.25134153764814526	0.43185390611817875	0.6858355037309551
1	0.01818181818181818	0.3472220440278844	0.6517971092675194	0.5954775127757334	0.3570904469346915	0.7107526813033098	1.0543856959191507	0.36632198885291867	0.7891104424517676	1.4604260557974507	0.35433021389452746	0.556409954189945	1.465337978515706	0.40132159550590396	0.597177807947363	1.4635706820347567	0.34080997968604937	0.8482135189510805	1.5334254120735404	0.1598233198427255	0.6367667224583807	0.6092403089357243	0.16603197079068963	0.6871776751611648	1.0238744483136466	0.17995284536032952	0.789192826054459	1.4496617422317268	0.18267679982958063	0.6030359687769757	1.479485715348127	0.13393416652348292	0.6149845505192982	1.4664128716126925	0.19206492211460435	0.8320409383175327	1.4987368830637329	0.2305660937845941	0.6011266225201533	0.08545246530394804	0.2275241026781912	0.5603842025231316	-0.14166124799651117	0.2243727987586704	0.47141063065988753	-0.015703708230838217	0.3861490143792378	0.5639033133921939	0.16106099261875106	0.4118989119794898	0.5543935302572844	0.4079123724716009	0.3137492998031641	0.5007590759479611	0.6062621848871392	0.25062971355212255	0.43126017167511044	0.6759651816462539	0.2508690112889442	0.43305682208815793	0.6815142498592822	0.25496936822344574	0.4442838515349661	0.693010656180222	0.10147022482521208	0.5931386517887102	0.1659964818694544	0.09293183957279917	0.5555367531013276	0.40966195313027	0.18878299474992272	0.4699915582750675	0.6012201021846588	0.25693913883155156	0.4175321235759603	0.658209556516728	0.2565978591516211	0.4182372873721596	0.678551910161182	0.2512217835512665	0.432497717312593	0.6862952749743509
2	0.03636363636363636	0.34660141148268503	0.6521673163100491	0.6009669259008524	0.3575367554468833	0.7098008482686908	1.0579765270302046	0.3664636419522333	0.7888884008735023	1.4603214937611981	0.3547138887445861	0.5563160824764398	1.4649279834102296	0.4051160567870508	0.6106697561668394	1.4703442354779421	0.34557268775380484	0.8293985570579844	1.5180048464387388	0.1553036448055562	0.633179371558329	0.6174252767665884	0.16780469173881668	0.6869709789407235	1.0267878310127232	0.17855029278888673	0.7767674971243966	1.4481290860078102	0.18146804139070505	0.5911426186213745	1.4779756769225438	0.13382489787091278	0.6144897143427814	1.4663608487193203	0.19193560635805304	0.8315317232121462	1.4988300691718741	0.23053365538515108	0.6011221215987176	0.08546418472954757	0.22759789668654712	0.5603752405264033	-0.14170881053841541	0.2222955829299733	0.4599211012914983	-0.01609038527772158	0.3859665434935592	0.5641675737036858	0.1645616549776172	0.4117956804882799	0.5546143014268066	0.40807813503595136	0.3136820817575491	0.501067573862195	0.6063273808187967	0.2504626007340264	0.4310930991478728	0.6765782905125771	0.2508333956380922	0.43255036025219895	0.6818186123087938	0.2600684991767152	0.4324568760714388	0.6894261115192151	0.10148053325367791	0.5931156680412184	0.16596219350273547	0.09860600694406489	0.5432218712326057	0.4070910864009102	0.1889058099253486	0.4697420306716727	0.6011760429970745	0.2573778560498866	0.4163317249317733	0.6614001415903616	0.25455847040674084	0.4057304761726774	0.6788622068234713	0.24594113422145078	0.4446029873129378	0.6904127080162132
3	0.05454545454545454	0.3437537328960411	0.6493708319627693	0.5991700831779206	0.356768871272446	0.7103763948597551	1.0625589950544805	0.3600266779530586	0.8063700787959858	1.4745806175841336	0.35465032411294456	0.5562559613573175	1.4648452481226844	0.40513155634147097	0.6112507400242698	1.4706608518722804	0.3401374720633571	0.8494642869559571	1.5392765610343104	0.15577103872828066	0.6320977578435004	0.6125553633675345	0.1678607455764662	0.6867796723836269	1.0268624231275836	0.1785462646844024	0.776870596151119	1.4482389741864472	0.18136536369575582	0.5913618541674838	1.4782274292012485	0.13377120643906457	0.6145997980253073	1.4664113058311927	0.1913278648759755	0.8332040216631361	1.4947724795290747	0.23054283358075398	0.601087326753182	0.08545191779771524	0.22733085758178756	0.5604916318912387	-0.14522210833575008	0.22058944853891682	0.46927528139457886	-0.01563897363749572	0.3860572102651829	0.5641031749241116	0.16110458386265253	0.4080006312024158	0.5542096989925959	0.412034904479051	0.31356752907128643	0.5011207239044803	0.6060223517421213	0.2504144588387768	0.4308655633140595	0.6766436054783135	0.25089959077309065	0.4324822581681926	0.6818197152627337	0.264026607359685	0.43283641246712856	0.6925874679163108	0.10149646613479375	0.5930959199246885	0.165909908822405	0.09869399418198664	0.5430476390323671	0.4069480148574447	0.19510201862544077	0.48418038216134185	0.6043843937209938	0.2569673335200035	0.41633011807909803	0.6653428131685479	0.25951341669841616	0.3942541902378115	0.6754032298688152	0.2511073780935149	0.4326638129063071	0.6867343447804173
4	0.07272727272727272	0.34359382386992965	0.6499692234547524	0.5959667056278665	0.35628951808182296	0.7115518526210884	1.059043045127939	0.3654546329113135	0.7893343355585557	1.4653473216330972	0.35444357562371803	0.5556546463023033	1.4646962758253397	0.40985476287634126	0.5952653884079898	1.4616212203645977	0.34571981368532145	0.8323290206400834	1.5301179990570737	0.15545955182337975	0.6323147738993271	0.6088463882040495	0.1726165328582658	0.6717275809201199	1.025366905965986	0.17866870079869104	0.7764947889079725	1.4477830377328247	0.18148283941029245	0.5910296550444477	1.4778508584746632	0.13380471152309856	0.6141205024783505	1.466041845127173	0.19130913107704864	0.8324700699809574	1.4944732060964123	0.2305584236997518	0.601181610680477	0.0854399203645981	0.2275510308805843	0.5606906889250248	-0.1416129534569746	0.21851016676401988	0.4579390690353422	-0.01596839452416995	0.38595162046333936	0.5642698707903856	0.16460940642100524	0.4053257410250297	0.54233076810145	0.4100976293061844	0.3135613095362254	0.5011218664552115	0.6059987895044664	0.2504204744174162	0.43074380965802067	0.6768149625088807	0.25095660361839933	0.43226458967666537	0.6820120561554464	0.26067734757112365	0.43184785387070224	0.6926035073647384	0.1017670151279941	0.5944400518369078	0.16946751269584376	0.09841216046309774	0.5441009550908106	0.4032696465758999	0.20045167352555657	0.4716713898832987	0.6007514566831936	0.25395083973852134	0.41429737557253465	0.66110308360226	0.25625848284811553	0.3923594243196737	0.6751554521193786	0.2511061440193761	0.4325730602965868	0.6868442681345929
